<?xml version="1.0" encoding="UTF-8" standalone="no"?>
<svg
   id="Layer_2"
   data-name="Layer 2"
   viewBox="0 0 355.7 43.5"
   version="1.1"
   sodipodi:docname="logo-white.svg"
   inkscape:version="1.3.2 (091e20e, 2023-11-25)"
   xmlns:inkscape="http://www.inkscape.org/namespaces/inkscape"
   xmlns:sodipodi="http://sodipodi.sourceforge.net/DTD/sodipodi-0.dtd"
   xmlns="http://www.w3.org/2000/svg"
   xmlns:svg="http://www.w3.org/2000/svg">
  <sodipodi:namedview
     id="namedview8"
     pagecolor="#ffffff"
     bordercolor="#000000"
     borderopacity="0.25"
     inkscape:showpageshadow="2"
     inkscape:pageopacity="0.0"
     inkscape:pagecheckerboard="0"
     inkscape:deskcolor="#d1d1d1"
     inkscape:zoom="1.5293786"
     inkscape:cx="177.52308"
     inkscape:cy="-83.04026"
     inkscape:window-width="1920"
     inkscape:window-height="1027"
     inkscape:window-x="0"
     inkscape:window-y="25"
     inkscape:window-maximized="1"
     inkscape:current-layer="g8" />
  <defs
     id="defs1">
    <style
       id="style1">
      .cls-1 {
        fill: #fff;
        stroke-width: 0px;
      }
    </style>
  </defs>
  <g
     id="Layer_1-2"
     data-name="Layer 1">
    <g
       id="g8">
      <path
         class="cls-1"
         d="M0,.7h8.9v19L26.4.7h10.9l-17.3,17.9,18.1,24.2h-10.7l-13.4-18.1-5.2,5.4v12.7H0V.7Z"
         id="path1"
         style="fill:#1e4b97;fill-opacity:1" />
      <path
         class="cls-1"
         d="M39.5,21.9h0C39.5,9.8,49,0,61.9,0s22.3,9.7,22.3,21.6h0c0,12-9.4,21.9-22.4,21.9s-22.3-9.7-22.3-21.6ZM74.9,21.9h0c0-7.5-5.4-13.7-13.1-13.7s-13,6.1-13,13.5h0c0,7.5,5.4,13.7,13.1,13.7s13-6.1,13-13.5Z"
         id="path2"
         style="fill:#1e4b97;fill-opacity:1" />
      <path
         class="cls-1"
         d="M89.6,21.9h0c0-12.1,9-21.9,21.9-21.9s12.7,2.6,16.6,6.5l-5.7,6.5c-3.3-3-6.7-4.9-11-4.9-7.3,0-12.6,6.1-12.6,13.5h0c0,7.5,5.2,13.7,12.6,13.7s7.9-2,11.3-5l5.7,5.7c-4.3,4.6-9.1,7.5-17.2,7.5-12.4,0-21.6-9.5-21.6-21.6Z"
         id="path3"
         style="fill:#1e4b97;fill-opacity:1" />
      <path
         class="cls-1"
         d="M136.4.7h8.9v16.8h17.7V.7h8.9v42.1h-8.9v-17.1h-17.7v17.1h-8.9V.7Z"
         id="path4"
         style="fill:#1e4b97;fill-opacity:1" />
      <path
         class="cls-1"
         d="M197.1.4h8.2l18.1,42.4h-9.3l-3.9-9.6h-18.2l-3.9,9.6h-9.1L197.1.4ZM207,25.4l-5.9-14.3-6,14.3h11.9Z"
         id="path5"
         style="fill:#1e4b97;fill-opacity:1" />
      <path
         class="cls-1"
         d="M221.8.7h9.8l11.3,30.2L254.3.7h9.6l-17.1,42.4h-7.9L221.8.7Z"
         id="path6"
         style="fill:#1e4b97;fill-opacity:1" />
      <path
         class="cls-1"
         d="M278.6.4h8.2l18.1,42.4h-9.3l-3.9-9.6h-18.2l-3.9,9.6h-9.1L278.6.4ZM288.5,25.4l-5.9-14.3-6,14.3h11.9Z"
         id="path7"
         style="fill:#1e4b97;fill-opacity:1" />
      <path
         class="cls-1"
         d="M328.1,16.5h-16.6c-.3,0-.5.3-.2.5l13.4,9.7-3.6,15.8c0,.3.3.5.5.3l11.8-9.8,12.4,9.8c.3.2.6,0,.5-.4l-4.2-15.7,13.4-9.7c.3-.2.1-.6-.2-.6h-16.6c0,0-5-15.7-5-15.7-.1-.3-.5-.3-.6,0l-5,15.8Z"
         id="path8"
         style="fill:#1e4b97;fill-opacity:1" />
    </g>
  </g>
</svg>
